<svg id="visual" viewBox="0 0 900 600" width="900" height="600" xmlns="http://www.w3.org/2000/svg" xmlns:xlink="http://www.w3.org/1999/xlink" version="1.1"><rect width="900" height="600" fill="#000000"></rect><g><g transform="translate(753 165)"><path d="M0 -37.4L32.4 -18.7L32.4 18.7L0 37.4L-32.4 18.7L-32.4 -18.7Z" fill="#297EA6"></path></g><g transform="translate(499 35)"><path d="M0 -20L17.3 -10L17.3 10L0 20L-17.3 10L-17.3 -10Z" fill="#297EA6"></path></g><g transform="translate(431 562)"><path d="M0 -20L17.3 -10L17.3 10L0 20L-17.3 10L-17.3 -10Z" fill="#297EA6"></path></g><g transform="translate(226 2)"><path d="M0 -13L11.3 -6.5L11.3 6.5L0 13L-11.3 6.5L-11.3 -6.5Z" fill="#297EA6"></path></g><g transform="translate(641 179)"><path d="M0 -26L22.5 -13L22.5 13L0 26L-22.5 13L-22.5 -13Z" fill="#297EA6"></path></g><g transform="translate(1 324)"><path d="M0 -14L12.1 -7L12.1 7L0 14L-12.1 7L-12.1 -7Z" fill="#297EA6"></path></g><g transform="translate(482 335)"><path d="M0 -24L20.8 -12L20.8 12L0 24L-20.8 12L-20.8 -12Z" fill="#297EA6"></path></g><g transform="translate(692 261)"><path d="M0 -27L23.4 -13.5L23.4 13.5L0 27L-23.4 13.5L-23.4 -13.5Z" fill="#297EA6"></path></g><g transform="translate(273 510)"><path d="M0 -12L10.4 -6L10.4 6L0 12L-10.4 6L-10.4 -6Z" fill="#297EA6"></path></g><g transform="translate(610 352)"><path d="M0 -20L17.3 -10L17.3 10L0 20L-17.3 10L-17.3 -10Z" fill="#297EA6"></path></g><g transform="translate(8 57)"><path d="M0 -24L20.8 -12L20.8 12L0 24L-20.8 12L-20.8 -12Z" fill="#297EA6"></path></g><g transform="translate(809 402)"><path d="M0 -29L25.1 -14.5L25.1 14.5L0 29L-25.1 14.5L-25.1 -14.5Z" fill="#297EA6"></path></g><g transform="translate(391 296)"><path d="M0 -22L19.1 -11L19.1 11L0 22L-19.1 11L-19.1 -11Z" fill="#297EA6"></path></g><g transform="translate(691 425)"><path d="M0 -15L13 -7.5L13 7.5L0 15L-13 7.5L-13 -7.5Z" fill="#297EA6"></path></g><g transform="translate(347 8)"><path d="M0 -32L27.7 -16L27.7 16L0 32L-27.7 16L-27.7 -16Z" fill="#297EA6"></path></g><g transform="translate(617 532)"><path d="M0 -25L21.7 -12.5L21.7 12.5L0 25L-21.7 12.5L-21.7 -12.5Z" fill="#297EA6"></path></g><g transform="translate(455 462)"><path d="M0 -27L23.4 -13.5L23.4 13.5L0 27L-23.4 13.5L-23.4 -13.5Z" fill="#297EA6"></path></g><g transform="translate(233 236)"><path d="M0 -11L9.5 -5.5L9.5 5.5L0 11L-9.5 5.5L-9.5 -5.5Z" fill="#297EA6"></path></g><g transform="translate(854 105)"><path d="M0 -28L24.2 -14L24.2 14L0 28L-24.2 14L-24.2 -14Z" fill="#297EA6"></path></g></g></svg>